<svg width="16" height="16" viewBox="0 0 16 16" fill="none" xmlns="http://www.w3.org/2000/svg">
<g clip-path="url(#clip0_125_3869)">
<path d="M14.4 0H1.6C0.716344 0 0 0.716344 0 1.6V14.4C0 15.2837 0.716344 16 1.6 16H14.4C15.2837 16 16 15.2837 16 14.4V1.6C16 0.716344 15.2837 0 14.4 0Z" fill="#A236B2"/>
<path d="M7.6218 11.6582C7.46133 11.7021 7.30867 11.7446 7.16211 11.7859L8.01164 13.2917H12.1374L10.4846 10.3623C9.79008 10.7975 8.88805 11.2264 7.6718 11.6428L7.6218 11.6582Z" fill="white"/>
<path d="M6.86586 3.95017L6.17445 2.72485H2.04883L3.9057 6.0161C4.69742 5.19188 5.71242 4.48454 6.86586 3.95032V3.95017Z" fill="white"/>
<path d="M2.19192 12.8421C2.19192 12.8421 2.34129 10.1221 3.52348 8.15697C4.51536 6.08697 7.13754 4.35369 10.113 3.85556C10.113 3.85556 12.613 3.27556 13.3874 2.82525C13.3874 2.82525 14.2297 2.27931 13.8493 3.54853C13.8493 3.54853 13.3447 4.77728 11.7891 5.57494C11.4224 5.75931 11.1497 5.80056 11.2074 6.15134C11.3115 6.50775 11.9063 6.23681 11.9879 6.19587C12.1293 6.07884 13.5082 5.70087 12.5894 7.01853C11.6655 8.38322 11.1047 9.62119 7.51786 10.8495C5.12661 11.5045 4.17551 11.8731 2.78973 13.1285C2.09676 13.6209 2.19192 12.842 2.19192 12.842V12.8421Z" fill="white"/>
</g>
<defs>
<clipPath id="clip0_125_3869">
<rect width="16" height="16" fill="white"/>
</clipPath>
</defs>
</svg>
