<svg width="56" height="56" viewBox="0 0 56 56" fill="none" xmlns="http://www.w3.org/2000/svg">
<g clip-path="url(#clip0_242_2224)">
<path d="M50.4 0H5.6C2.50721 0 0 2.50721 0 5.6V50.4C0 53.4928 2.50721 56 5.6 56H50.4C53.4928 56 56 53.4928 56 50.4V5.6C56 2.50721 53.4928 0 50.4 0Z" fill="#A236B2"/>
<path d="M26.6695 40.8031C26.1078 40.9568 25.5735 41.1055 25.0605 41.2499L28.0339 46.5201H42.4741L36.6893 36.2673C34.2584 37.7904 31.1013 39.2916 26.8445 40.749L26.6695 40.8031Z" fill="white"/>
<path d="M24.0334 13.8252L21.6135 9.53662H7.17383L13.6729 21.056C16.4439 18.1712 19.9964 15.6955 24.0334 13.8258V13.8252Z" fill="white"/>
<path d="M7.67171 44.9467C7.67171 44.9467 8.19452 35.4267 12.3322 28.5486C15.8037 21.3036 24.9814 15.2372 35.3955 13.4937C35.3955 13.4937 44.1455 11.4637 46.8559 9.88763C46.8559 9.88763 49.8041 7.97685 48.4724 12.4191C48.4724 12.4191 46.7066 16.7197 41.2619 19.5115C39.9784 20.1569 39.0241 20.3012 39.2259 21.529C39.5901 22.7764 41.672 21.8281 41.9575 21.6848C42.4524 21.2752 47.2786 19.9523 44.063 24.5641C40.8293 29.3405 38.8666 33.6734 26.3125 37.9724C17.9431 40.2649 14.6143 41.555 9.76406 45.9491C7.33866 47.6723 7.67171 44.9462 7.67171 44.9462V44.9467Z" fill="white"/>
</g>
<defs>
<clipPath id="clip0_242_2224">
<rect width="56" height="56" fill="white"/>
</clipPath>
</defs>
</svg>
