<svg width="190" height="25" viewBox="0 0 190 25" fill="none" xmlns="http://www.w3.org/2000/svg">
<g clip-path="url(#clip0_243_2256)">
<path d="M22.5 0H2.5C1.11929 0 0 1.11929 0 2.5V22.5C0 23.8807 1.11929 25 2.5 25H22.5C23.8807 25 25 23.8807 25 22.5V2.5C25 1.11929 23.8807 0 22.5 0Z" fill="#A236B2"/>
<path d="M11.9058 18.2156C11.655 18.2842 11.4165 18.3506 11.1875 18.415L12.5149 20.7678H18.9614L16.3789 16.1907C15.2937 16.8706 13.8843 17.5408 11.9839 18.1914L11.9058 18.2156Z" fill="white"/>
<path d="M10.7297 6.17212L9.64941 4.25757H3.20312L6.10449 9.40015C7.34155 8.1123 8.92749 7.00708 10.7297 6.17236V6.17212Z" fill="white"/>
<path d="M3.42487 20.0655C3.42487 20.0655 3.65827 15.8155 5.50544 12.7449C7.05524 9.51055 11.1524 6.8023 15.8016 6.02398C15.8016 6.02398 19.7078 5.11773 20.9178 4.41411C20.9178 4.41411 22.234 3.56109 21.6395 5.54424C21.6395 5.54424 20.8511 7.46416 18.4205 8.7105C17.8475 8.99859 17.4215 9.06304 17.5115 9.61114C17.6741 10.168 18.6036 9.74468 18.731 9.68072C18.952 9.49785 21.1065 8.90728 19.671 10.9661C18.2274 13.0984 17.3511 15.0328 11.7466 16.952C8.01032 17.9754 6.52424 18.5513 4.35895 20.513C3.27619 21.2823 3.42487 20.0652 3.42487 20.0652V20.0655Z" fill="white"/>
</g>
<path d="M189.715 12.5662C189.329 12.3559 188.878 12.2508 188.362 12.2508C187.664 12.2508 187.118 12.5085 186.724 13.0239C186.331 13.5326 186.134 14.2277 186.134 15.1093V20.0837H182.92V9.66699H186.134V11.5998H186.175C186.684 10.1892 187.599 9.48389 188.922 9.48389C189.261 9.48389 189.525 9.52458 189.715 9.60596V12.5662Z" fill="#333333"/>
<path d="M175.147 20.3381C173.411 20.3381 172.045 19.8532 171.048 18.8835C170.058 17.9069 169.562 16.5845 169.562 14.9162C169.562 13.1936 170.078 11.8475 171.109 10.8777C172.14 9.90112 173.533 9.41284 175.29 9.41284C177.019 9.41284 178.375 9.90112 179.359 10.8777C180.342 11.8475 180.834 13.1326 180.834 14.7331C180.834 16.4624 180.325 17.8289 179.308 18.8326C178.297 19.8363 176.91 20.3381 175.147 20.3381ZM175.229 11.8746C174.469 11.8746 173.879 12.1357 173.459 12.6579C173.038 13.1801 172.828 13.9193 172.828 14.8755C172.828 16.8761 173.635 17.8764 175.249 17.8764C176.788 17.8764 177.558 16.849 177.558 14.7941C177.558 12.8478 176.782 11.8746 175.229 11.8746Z" fill="#333333"/>
<path d="M168.444 19.9617C167.969 20.2126 167.253 20.3381 166.297 20.3381C164.032 20.3381 162.9 19.1614 162.9 16.8082V12.0373H161.211V9.66707H162.9V7.41895L166.104 6.50342V9.66707H168.444V12.0373H166.104V16.2487C166.104 17.3338 166.535 17.8763 167.396 17.8763C167.735 17.8763 168.084 17.778 168.444 17.5813V19.9617Z" fill="#333333"/>
<path d="M157.853 8.01921C157.311 8.01921 156.867 7.85984 156.521 7.5411C156.175 7.21558 156.002 6.81885 156.002 6.35091C156.002 5.86941 156.175 5.47607 156.521 5.1709C156.867 4.86572 157.311 4.71313 157.853 4.71313C158.403 4.71313 158.847 4.86572 159.186 5.1709C159.532 5.47607 159.705 5.86941 159.705 6.35091C159.705 6.83919 159.532 7.23931 159.186 7.55127C158.847 7.86323 158.403 8.01921 157.853 8.01921ZM159.44 20.0838H156.226V9.66715H159.44V20.0838Z" fill="#333333"/>
<path d="M153.52 20.0837H150.306V18.6493H150.265C149.533 19.7751 148.458 20.338 147.041 20.338C145.738 20.338 144.691 19.8802 143.897 18.9647C143.104 18.0424 142.707 16.7572 142.707 15.1093C142.707 13.3867 143.144 12.0067 144.019 10.9691C144.894 9.93148 146.04 9.41268 147.458 9.41268C148.8 9.41268 149.736 9.89418 150.265 10.8572H150.306V4.66211H153.52V20.0837ZM150.367 15.0177V14.2345C150.367 13.5563 150.17 12.9934 149.777 12.5458C149.384 12.0982 148.872 11.8744 148.241 11.8744C147.529 11.8744 146.973 12.1559 146.573 12.7188C146.172 13.2748 145.972 14.0412 145.972 15.0177C145.972 15.9333 146.166 16.6386 146.552 17.1336C146.939 17.6287 147.475 17.8762 148.16 17.8762C148.811 17.8762 149.34 17.6151 149.746 17.0929C150.16 16.5707 150.367 15.879 150.367 15.0177Z" fill="#333333"/>
<path d="M141.303 20.0837H132.555V5.49634H140.967V8.17171H135.84V11.4167H140.611V14.0819H135.84V17.4185H141.303V20.0837Z" fill="#333333"/>
<path d="M124.386 8.17171H119.239V11.7524H123.969V14.4176H119.239V20.0837H115.953V5.49634H124.386V8.17171Z" fill="#333333"/>
<path d="M100.594 20.0837V5.49634H105.761C110.943 5.49634 113.533 7.86654 113.533 12.6069C113.533 14.8788 112.825 16.6929 111.407 18.0492C109.997 19.4056 108.115 20.0837 105.761 20.0837H100.594ZM103.879 8.17171V17.4185H105.507C106.931 17.4185 108.047 16.9913 108.854 16.1368C109.668 15.2823 110.075 14.1192 110.075 12.6476C110.075 11.2574 109.671 10.1655 108.864 9.37207C108.064 8.57183 106.938 8.17171 105.487 8.17171H103.879Z" fill="#333333"/>
<path d="M91.0806 15.0585V20.0837H87.7949V5.49634H92.9422C96.6179 5.49634 98.4557 7.04595 98.4557 10.1452C98.4557 11.61 97.9268 12.7968 96.8688 13.7056C95.8177 14.6075 94.4105 15.0585 92.6472 15.0585H91.0806ZM91.0806 8.01912V12.5662H92.3726C94.1222 12.5662 94.9971 11.7999 94.9971 10.2673C94.9971 8.7685 94.1222 8.01912 92.3726 8.01912H91.0806Z" fill="#333333"/>
<path d="M79.9026 19.9617C79.4279 20.2126 78.7124 20.3381 77.7562 20.3381C75.4911 20.3381 74.3586 19.1614 74.3586 16.8082V12.0373H72.6699V9.66707H74.3586V7.41895L77.5629 6.50342V9.66707H79.9026V12.0373H77.5629V16.2487C77.5629 17.3338 77.9935 17.8763 78.8548 17.8763C79.1939 17.8763 79.5432 17.778 79.9026 17.5813V19.9617Z" fill="#333333"/>
<path d="M69.3123 8.01921C68.7698 8.01921 68.3256 7.85984 67.9797 7.5411C67.6339 7.21558 67.4609 6.81885 67.4609 6.35091C67.4609 5.86941 67.6339 5.47607 67.9797 5.1709C68.3256 4.86572 68.7698 4.71313 69.3123 4.71313C69.8617 4.71313 70.3059 4.86572 70.6449 5.1709C70.9908 5.47607 71.1637 5.86941 71.1637 6.35091C71.1637 6.83919 70.9908 7.23931 70.6449 7.55127C70.3059 7.86323 69.8617 8.01921 69.3123 8.01921ZM70.8992 20.0838H67.6847V9.66715H70.8992V20.0838Z" fill="#333333"/>
<path d="M66.2306 9.66699L62.7923 14.7126L66.2103 20.0837H62.5075L61.002 17.276C60.8799 17.0522 60.7341 16.7369 60.5645 16.33H60.5238C60.4221 16.6148 60.2831 16.92 60.1068 17.2455L58.5911 20.0837H54.8984L58.4181 14.8957L55.1121 9.66699H58.8352L60.3204 12.5865C60.5171 12.9731 60.6561 13.2986 60.7375 13.5631H60.7782C60.8867 13.2443 61.0325 12.912 61.2156 12.5662L62.7313 9.66699H66.2306Z" fill="#333333"/>
<path d="M48.825 20.3381C47.0888 20.3381 45.7223 19.8532 44.7254 18.8835C43.7353 17.9069 43.2402 16.5845 43.2402 14.9162C43.2402 13.1936 43.7556 11.8475 44.7865 10.8777C45.8173 9.90112 47.2109 9.41284 48.9674 9.41284C50.6967 9.41284 52.053 9.90112 53.0364 10.8777C54.0197 11.8475 54.5114 13.1326 54.5114 14.7331C54.5114 16.4624 54.0028 17.8289 52.9855 18.8326C51.975 19.8363 50.5882 20.3381 48.825 20.3381ZM48.9063 11.8746C48.1468 11.8746 47.5568 12.1357 47.1363 12.6579C46.7158 13.1801 46.5056 13.9193 46.5056 14.8755C46.5056 16.8761 47.3126 17.8764 48.9267 17.8764C50.4661 17.8764 51.2358 16.849 51.2358 14.7941C51.2358 12.8478 50.4593 11.8746 48.9063 11.8746Z" fill="#333333"/>
<path d="M41.767 8.17171H36.6197V11.7524H41.3499V14.4176H36.6197V20.0837H33.334V5.49634H41.767V8.17171Z" fill="#333333"/>
<defs>
<clipPath id="clip0_243_2256">
<rect width="25" height="25" fill="white"/>
</clipPath>
</defs>
</svg>
