<svg width="24" height="24" viewBox="0 0 24 24" fill="none" xmlns="http://www.w3.org/2000/svg">
<path d="M9 12L12.5 15.5" stroke="#333333" stroke-linecap="square" stroke-linejoin="round"/>
<path d="M16 12L12.5 15.5" stroke="#333333" stroke-linecap="square" stroke-linejoin="round"/>
<path d="M20.5 6C21.3284 6 22 6.67157 22 7.5V19.5L21.9922 19.6533C21.9154 20.4097 21.2767 21 20.5 21H4.5L4.34668 20.9922C3.64069 20.9205 3.07949 20.3593 3.00781 19.6533L3 19.5V7.5C3 6.72334 3.59028 6.08461 4.34668 6.00781L4.5 6H9V7H4.5C4.22386 7 4 7.22386 4 7.5V19.5C4 19.7761 4.22386 20 4.5 20H20.5C20.7761 20 21 19.7761 21 19.5V7.5C21 7.22386 20.7761 7 20.5 7H16V6H20.5Z" fill="#333333"/>
<path d="M12.5 3.63123L12.5 14.9996" stroke="#333333" stroke-linecap="round"/>
</svg>
