<svg width="14" height="14" viewBox="0 0 14 14" fill="none" xmlns="http://www.w3.org/2000/svg">
<path fill-rule="evenodd" clip-rule="evenodd" d="M6.66667 1.33333C3.72115 1.33333 1.33333 3.72115 1.33333 6.66667C1.33333 9.61218 3.72115 12 6.66667 12C9.61218 12 12 9.61218 12 6.66667C12 3.72115 9.61218 1.33333 6.66667 1.33333ZM0 6.66667C0 2.98477 2.98477 0 6.66667 0C10.3486 0 13.3333 2.98477 13.3333 6.66667C13.3333 10.3486 10.3486 13.3333 6.66667 13.3333C2.98477 13.3333 0 10.3486 0 6.66667ZM10.3047 4.9714L6 9.27614L3.19526 6.4714L4.13807 5.5286L6 7.39052L9.36193 4.0286L10.3047 4.9714Z" fill="#79C046"/>
</svg>
